<svg width="324" height="97" viewBox="0 0 324 97" fill="none" xmlns="http://www.w3.org/2000/svg">
<path d="M257.567 0.213692C249.323 1.34516 237.672 5.43585 230.654 9.52654C219.139 16.3153 210.417 27.8911 211.03 35.6373L211.235 38.4225L212.393 35.8114C215.8 27.8041 224.181 20.232 234.265 15.8802C242.85 12.2247 250.958 10.8321 264.04 10.8321C284.958 10.8321 298.926 15.7931 304.513 25.193C312.212 38.0743 301.243 54.263 280.734 60.0944C275.487 61.574 265.607 63.1407 260.293 63.3148L256.886 63.4018L259.952 64.2722C261.656 64.7073 267.651 64.8814 273.239 64.7073C284.822 64.2722 291.022 62.5314 299.403 57.4834C302.196 55.8297 304.513 54.6112 304.649 54.7852C305.467 55.7426 300.084 61.8352 296.541 64.0111C282.778 72.2795 252.389 72.8017 245.712 64.8814C244.349 63.2277 244.281 62.8796 245.167 61.7481C246.461 60.0074 249.527 59.2241 262.678 57.1352C290.205 52.6964 301.038 47.1261 302.605 36.6818C303.9 27.63 297.972 21.3634 284.209 17.3598C276.441 15.0968 254.91 15.3579 245.439 17.795C229.7 21.9727 219.956 28.7615 217.367 37.5521C216.277 41.1206 216.277 41.4687 217.64 45.0372C218.389 47.1261 219.411 49.476 219.82 50.1723C220.433 51.3038 220.229 52.2612 218.866 54.7852C214.846 62.3574 214.846 69.1462 218.73 75.6739C224.113 84.6386 236.854 92.0366 253.139 95.5181C259.816 96.9106 276.032 96.9106 282.096 95.5181C306.489 89.7737 324 74.8905 324 59.9204C324 57.9185 323.796 58.0926 322.092 61.574C317.255 71.235 307.17 78.9812 294.02 83.159C280.665 87.3367 254.978 86.6404 243.736 81.7664C235.014 78.0238 229.291 72.4535 227.996 66.361C224.453 49.5631 246.393 33.7225 273.171 33.6355C276.169 33.6355 278.417 33.4614 278.213 33.2003C278.076 32.9392 274.806 32.33 270.99 31.8948C258.93 30.3281 245.03 33.1133 234.946 39.2928C232.221 40.9465 229.972 41.991 229.972 41.6428C229.972 40.5113 233.447 36.2466 235.968 34.1577C239.034 31.7207 245.712 28.9356 252.116 27.4559C258.521 25.8893 276.237 25.8893 281.074 27.4559C285.912 28.9356 289.932 31.8077 289.932 33.7225C289.932 36.1595 287.615 36.9429 273.239 39.2928C253.752 42.4261 243.872 45.5594 238.149 50.3464C234.129 53.7408 232.561 56.526 232.221 61.0518C231.403 69.8425 237.331 75.4998 251.367 79.5035C257.431 81.1571 277.259 81.4182 284.481 79.8516C296.746 77.2405 304.99 73.672 310.918 68.4499C318.004 62.0963 319.707 55.6556 316.096 48.8668C314.665 46.0816 314.461 45.2113 315.142 43.7317C318.413 35.9855 318.754 34.6799 318.754 30.5022C318.685 17.795 304.513 6.30621 282.778 1.4322C278.281 0.387764 261.86 -0.395561 257.567 0.213692Z" fill="url(#paint0_linear_18_690)"/>
<path d="M13.5393 63C10.3713 63 7.87525 62.168 6.05125 60.504C4.22725 58.808 3.31525 56.472 3.31525 53.496C3.31525 52.536 3.41125 51.56 3.60325 50.568L4.94725 43.224H9.55525L8.30725 50.184C8.21125 50.696 8.16325 51.176 8.16325 51.624C8.16325 53.128 8.64325 54.312 9.60325 55.176C10.5633 56.04 11.8273 56.472 13.3953 56.472H26.5473C28.7233 56.472 30.2273 55.88 31.0593 54.696L30.5312 51.48C30.3713 50.36 29.9553 49.512 29.2833 48.936C28.6113 48.328 27.7313 48.024 26.6433 48.024H16.3713L13.2993 41.352L24.9633 30.072L27.4593 35.16L19.6833 42.456H27.0273C29.2673 42.456 31.1233 43.064 32.5953 44.28C34.0993 45.496 35.0273 47.128 35.3793 49.176L35.8113 51.672C35.9393 52.568 36.0033 53.24 36.0033 53.688C36.0033 55.48 35.5713 57.08 34.7073 58.488C33.8753 59.896 32.6753 61 31.1073 61.8C29.5393 62.6 27.6993 63 25.5873 63H13.5393ZM11.3793 37.272L18.3393 30.6L19.9713 33.912L12.9153 40.632L11.3793 37.272ZM45.9925 35.784V53.64C45.9925 54.568 45.8805 55.416 45.6565 56.184L45.1285 58.104L47.6245 57.576C49.0325 57.288 50.2325 56.952 51.2245 56.568C52.2165 56.152 53.0645 55.608 53.7685 54.936L53.5765 33.864L58.7125 32.424V52.488C58.7125 53.64 59.0805 54.6 59.8165 55.368C60.5845 56.104 61.6405 56.472 62.9845 56.472H64.3285C64.8725 56.472 65.3365 56.792 65.7205 57.432C66.1045 58.04 66.2965 58.808 66.2965 59.736C66.2965 60.664 66.1045 61.448 65.7205 62.088C65.3365 62.696 64.8725 63 64.3285 63H62.6965C61.1605 63 59.8485 62.696 58.7605 62.088C57.6725 61.448 56.8245 60.552 56.2165 59.4C55.5445 60.424 54.6645 61.256 53.5765 61.896C52.5205 62.536 51.1605 63.048 49.4965 63.432L45.5605 64.296L43.4485 62.568C42.6485 61.96 42.0405 61.224 41.6245 60.36C41.2405 59.464 41.0485 58.488 41.0485 57.432V37.128L45.9925 35.784ZM64.2801 63C63.7361 63 63.2721 62.696 62.8881 62.088C62.5041 61.448 62.3121 60.664 62.3121 59.736C62.3121 58.808 62.5041 58.04 62.8881 57.432C63.2721 56.792 63.7361 56.472 64.2801 56.472H68.5041C70.7761 56.472 72.4721 55.912 73.5921 54.792L70.7601 40.824L75.8481 38.376L78.3441 50.424C78.5681 51.64 78.6801 52.632 78.6801 53.4C78.6801 56.312 77.7521 58.648 75.8961 60.408C74.0401 62.136 71.5281 63 68.3601 63H64.2801ZM66.3921 68.376H72.2481V73.944H66.3921V68.376ZM87.0524 61.128L89.3084 60.216V39.816L96.4124 38.424V59.448C96.4124 61.848 95.8364 63.928 94.6844 65.688C93.5324 67.48 91.9484 68.792 89.9324 69.624L83.3084 72.36L79.3724 64.296L87.0524 61.128ZM89.3084 26.136H96.6044V33.144H89.3084V26.136ZM127.123 53.4C127.827 53.4 128.435 53.88 128.947 54.84C129.459 55.768 129.715 56.888 129.715 58.2C129.715 59.512 129.459 60.648 128.947 61.608C128.435 62.536 127.827 63 127.123 63H122.899C122.515 64.76 121.779 66.296 120.691 67.608C119.603 68.92 118.227 69.816 116.563 70.296L108.211 72.888L105.619 65.4L113.875 62.904L116.659 62.04L116.515 61.032L113.395 61.848C112.627 62.04 111.843 62.136 111.043 62.136H107.923C106.099 62.136 104.515 61.512 103.171 60.264C101.859 59.016 101.075 57.432 100.819 55.512L100.243 51.144C100.147 50.312 100.099 49.528 100.099 48.792C100.099 45.624 100.947 43 102.643 40.92C104.371 38.808 106.835 37.4 110.035 36.696L118.099 34.92L120.931 37.272C121.667 37.88 122.227 38.6 122.611 39.432C122.995 40.264 123.187 41.16 123.187 42.12V53.4H127.123ZM115.843 53.736V43.464L109.747 44.712C108.083 45.096 107.251 46.072 107.251 47.64C107.251 47.96 107.267 48.2 107.299 48.36L108.019 53.736H115.843ZM105.187 24.312L108.547 22.776L110.851 30.024L113.059 22.728L116.515 24.264L113.251 32.904H108.451L105.187 24.312ZM145.861 60.504C144.613 62.168 142.613 63 139.861 63H127.141C126.437 63 125.829 62.536 125.317 61.608C124.805 60.648 124.549 59.512 124.549 58.2C124.549 56.888 124.805 55.768 125.317 54.84C125.829 53.88 126.437 53.4 127.141 53.4L131.173 53.352L131.845 45C132.005 43.368 132.453 41.88 133.189 40.536C133.957 39.16 134.981 38.072 136.261 37.272C137.541 36.472 138.997 36.072 140.629 36.072C141.429 36.072 142.229 36.168 143.029 36.36L144.325 36.648L145.765 32.808L156.805 38.568C158.597 39.496 160.005 40.744 161.029 42.312C162.053 43.848 162.757 45.752 163.141 48.024L164.245 54.6C164.309 54.888 164.341 55.336 164.341 55.944C164.341 57.992 163.701 59.752 162.421 61.224L159.973 64.152L145.861 60.504ZM156.805 48.264C156.645 47.432 156.373 46.712 155.989 46.104C155.605 45.496 155.125 45.048 154.549 44.76L150.085 42.36L150.181 49.944C150.181 50.968 150.005 51.944 149.653 52.872L157.957 55.032L156.805 48.264ZM143.893 53.448C144.533 52.712 144.853 51.64 144.853 50.232L144.757 42.84L141.637 42.744C140.677 42.68 139.861 42.936 139.189 43.512C138.549 44.056 138.197 44.824 138.133 45.816L137.509 53.448H143.893ZM177.344 63C175.456 63 173.776 62.584 172.304 61.752C170.864 60.92 169.728 59.736 168.896 58.2C168.064 56.664 167.648 54.872 167.648 52.824L167.552 32.472L175.04 30.456V50.376C175.04 51.304 175.312 52.04 175.856 52.584C176.4 53.128 177.12 53.4 178.016 53.4H182.816C184.192 53.4 185.36 53.208 186.32 52.824L183.296 38.904L190.592 35.352L193.376 47.88C193.664 49.16 193.808 50.376 193.808 51.528C193.808 53.8 193.312 55.816 192.32 57.576C191.328 59.304 189.936 60.648 188.144 61.608C186.384 62.536 184.352 63 182.048 63H177.344ZM176.672 67.704H183.968V74.712H176.672V67.704Z" fill="black"/>
<defs>
<linearGradient id="paint0_linear_18_690" x1="324" y1="79.0382" x2="203.084" y2="46.4306" gradientUnits="userSpaceOnUse">
<stop stop-color="#2B7A78"/>
<stop offset="1" stop-color="#3AAFA9"/>
</linearGradient>
</defs>
</svg>
