<svg width="2193" height="319" viewBox="0 0 2193 319" fill="none" xmlns="http://www.w3.org/2000/svg">
<rect width="2193" height="319" rx="60" fill="#42B1B8"/>
<mask id="mask0_18_579" style="mask-type:alpha" maskUnits="userSpaceOnUse" x="0" y="0" width="2193" height="319">
<rect width="2193" height="319" rx="60" fill="#7D41E1"/>
</mask>
<g mask="url(#mask0_18_579)">
<path d="M54.5 -43C92.8333 78.5 190.2 335.2 303 398C415.8 460.8 380.5 434 364 398C412.5 376.5 535.5 234.5 584 172.5C584 172.5 732 -32 818 -58L974.5 -29.5C989.667 -28.3333 1085 136.5 1344.5 422.5C1639.3 747.41 1572.17 553.667 1522 399.5C1572 427.833 1975.5 254.5 2125 -43.5" stroke="#4DCECA" stroke-width="44"/>
<path d="M1221.5 202C1230.33 208.5 1255.4 213.6 1285 182C1287 179.5 1285.6 174.8 1280 178C1273 182 1261 198.5 1267 204C1271 206.333 1283.6 209.2 1302 202C1320.4 194.8 1326.33 185.667 1327 182C1327.45 179.5 1324.6 177.2 1321 182C1316.5 188 1312.5 203 1327 206C1341.5 209 1366.5 207 1378 202" stroke="#DEF2F1" stroke-width="4" stroke-linecap="round"/>
<path fill-rule="evenodd" clip-rule="evenodd" d="M1712 227C1728.02 227 1741 214.016 1741 198C1741 181.984 1728.02 169 1712 169C1695.98 169 1683 181.984 1683 198C1683 214.016 1695.98 227 1712 227ZM1712 221C1724.7 221 1735 210.703 1735 198C1735 185.297 1724.7 175 1712 175C1699.3 175 1689 185.297 1689 198C1689 210.703 1699.3 221 1712 221Z" fill="#FEFFFF"/>
<path fill-rule="evenodd" clip-rule="evenodd" d="M416 160C432.016 160 445 147.016 445 131C445 114.984 432.016 102 416 102C399.984 102 387 114.984 387 131C387 147.016 399.984 160 416 160ZM416 154C428.703 154 439 143.703 439 131C439 118.297 428.703 108 416 108C403.297 108 393 118.297 393 131C393 143.703 403.297 154 416 154Z" fill="#FEFFFF"/>
<path d="M1065.94 150.614C1066.16 151.762 1066.27 153.047 1066.27 154.468C1066.27 158.021 1065.42 161.219 1063.73 164.062C1062.04 166.85 1059.63 169.037 1056.51 170.622C1053.45 172.207 1049.9 173 1045.85 173H1026.09C1021.77 173 1018 172.207 1014.78 170.622C1011.61 168.982 1009.15 166.686 1007.4 163.734C1005.65 160.727 1004.77 157.283 1004.77 153.402C1004.77 151.707 1004.99 149.712 1005.43 147.416L1008.13 134.378H1019.12L1016.83 145.776C1016.66 146.487 1016.58 147.225 1016.58 147.99C1016.58 150.559 1017.4 152.637 1019.04 154.222C1020.73 155.807 1022.92 156.6 1025.6 156.6H1049.63C1051.43 156.6 1052.85 156.272 1053.89 155.616L1053.15 151.598C1052.99 150.505 1052.55 149.657 1051.84 149.056C1051.13 148.4 1050.23 148.072 1049.13 148.072H1029.45L1023.3 134.46L1023.22 134.542L1019.78 126.67L1032.65 114.288L1035.77 120.602L1045.28 111.418L1051.59 123.882L1039.95 134.542H1051.27C1054.87 134.542 1057.94 135.581 1060.45 137.658C1063.02 139.735 1064.6 142.523 1065.21 146.022L1065.94 150.614ZM1084.89 121.012V151.68C1084.89 153.648 1084.53 155.315 1083.82 156.682L1082.02 160.126L1085.79 159.306C1090.27 158.267 1093.58 157.283 1095.71 156.354L1095.38 120.192L1108.18 116.748V151.516C1108.18 152.992 1108.64 154.222 1109.57 155.206C1110.55 156.135 1111.84 156.6 1113.42 156.6H1116.13C1117.33 156.6 1118.37 157.42 1119.25 159.06C1120.12 160.645 1120.56 162.559 1120.56 164.8C1120.56 167.041 1120.12 168.982 1119.25 170.622C1118.37 172.207 1117.33 173 1116.13 173H1112.28C1107.3 173 1103.58 171.087 1101.12 167.26C1099.81 168.955 1098.31 170.294 1096.61 171.278C1094.92 172.262 1092.84 173.055 1090.38 173.656L1082.51 175.378L1077.92 171.688C1076.28 170.376 1075.02 168.791 1074.15 166.932C1073.27 165.019 1072.83 162.969 1072.83 160.782V124.292L1084.89 121.012ZM1116.15 173C1114.95 173 1113.91 172.207 1113.03 170.622C1112.16 168.982 1111.72 167.041 1111.72 164.8C1111.72 162.559 1112.16 160.645 1113.03 159.06C1113.91 157.42 1114.95 156.6 1116.15 156.6H1123.94C1126.51 156.6 1128.7 156.272 1130.5 155.616L1125.33 131.836L1137.8 125.768L1142.47 147.17C1142.96 149.357 1143.21 151.434 1143.21 153.402C1143.21 157.283 1142.36 160.727 1140.67 163.734C1138.97 166.686 1136.6 168.982 1133.53 170.622C1130.53 172.207 1127.06 173 1123.12 173H1116.15ZM1117.54 180.872H1130.01V192.844H1117.54V180.872ZM1184.5 129.048C1185.76 130.087 1186.71 131.317 1187.37 132.738C1188.03 134.159 1188.35 135.69 1188.35 137.33V168.572C1188.35 172.508 1187.34 176.034 1185.32 179.15C1183.35 182.321 1180.59 184.425 1177.04 185.464L1162.77 189.892L1158.34 177.1L1172.45 172.836L1177.2 171.36L1176.96 169.638L1171.63 171.032C1170.31 171.36 1168.98 171.524 1167.61 171.524H1162.28C1159.16 171.524 1156.46 170.458 1154.16 168.326C1151.92 166.194 1150.58 163.488 1150.14 160.208L1149.16 152.746C1148.99 151.325 1148.91 149.985 1148.91 148.728C1148.91 143.316 1150.36 138.833 1153.26 135.28C1156.21 131.672 1160.42 129.267 1165.89 128.064L1179.66 125.03L1184.5 129.048ZM1175.81 157.174V139.626L1165.39 141.758C1162.55 142.414 1161.13 144.081 1161.13 146.76C1161.13 147.307 1161.16 147.717 1161.21 147.99L1162.44 157.174H1175.81Z" fill="#FEFFFF"/>
<path fill-rule="evenodd" clip-rule="evenodd" d="M1019 58C1021.21 58 1023 59.7909 1023 62V81C1023 83.2091 1021.21 85 1019 85C1016.79 85 1015 83.2091 1015 81V62C1015 59.7909 1016.79 58 1019 58ZM950.703 128.062C951.091 125.888 953.169 124.439 955.344 124.828L975.469 128.421C977.643 128.81 979.091 130.888 978.703 133.062C978.315 135.237 976.237 136.685 974.062 136.297L953.938 132.703C951.763 132.315 950.315 130.237 950.703 128.062ZM962.52 68.2792C960.978 66.6975 958.446 66.6654 956.864 68.2076C955.282 69.7498 955.25 72.2823 956.792 73.864L990.208 108.136C991.75 109.718 994.282 109.75 995.864 108.208C997.446 106.665 997.478 104.133 995.936 102.551L962.52 68.2792Z" fill="#FEFFFF"/>
</g>
</svg>
