<svg width="261" height="266" viewBox="0 0 261 266" fill="none" xmlns="http://www.w3.org/2000/svg">
<path d="M116.441 0.271706C106.012 1.71295 91.2731 6.92361 82.3954 12.1343C67.829 20.7818 56.7965 35.5268 57.5722 45.3939L57.8308 48.9415L59.296 45.6156C63.6056 35.416 74.2072 25.7707 86.9635 20.2274C97.8236 15.5711 108.08 13.7973 124.629 13.7973C151.09 13.7973 168.759 20.1166 175.827 32.09C185.567 48.4981 171.69 69.119 145.746 76.547C139.109 78.4317 126.612 80.4273 119.889 80.649L115.579 80.7599L119.458 81.8685C121.612 82.4228 129.197 82.6446 136.265 82.4228C150.918 81.8685 158.761 79.6512 169.363 73.221C172.896 71.1146 175.827 69.5625 175.999 69.7842C177.034 71.0037 170.224 78.7643 165.743 81.5359C148.332 92.0681 109.89 92.7333 101.444 82.6446C99.7198 80.5381 99.6337 80.0947 100.754 78.6534C102.392 76.4361 106.27 75.4383 122.905 72.7776C157.727 67.1234 171.431 60.0281 173.414 46.7242C175.051 35.1943 167.553 27.212 150.142 22.1122C140.316 19.2297 113.08 19.5623 101.099 22.6665C81.1887 27.988 68.8633 36.6355 65.588 47.8329C64.209 52.3784 64.209 52.8218 65.9328 57.3673C66.8809 60.0281 68.1738 63.0214 68.6909 63.9083C69.4666 65.3496 69.2081 66.5691 67.4842 69.7842C62.3989 79.4295 62.3989 88.077 67.3118 96.3919C74.121 107.811 90.2388 117.235 110.839 121.669C119.285 123.443 139.799 123.443 147.47 121.669C178.326 114.352 200.478 95.3941 200.478 76.3253C200.478 73.7753 200.219 73.9971 198.064 78.4317C191.945 90.7377 179.188 100.605 162.553 105.926C145.66 111.248 113.166 110.361 98.9441 104.152C87.9116 99.3852 80.6715 92.2898 79.0339 84.5293C74.5519 63.1323 102.306 42.9548 136.179 42.8439C139.971 42.8439 142.816 42.6222 142.557 42.2896C142.385 41.957 138.247 41.181 133.421 40.6266C118.165 38.6311 100.582 42.1788 87.8254 50.0502C84.3778 52.1566 81.5334 53.487 81.5334 53.0436C81.5334 51.6023 85.9292 46.1699 89.1183 43.5091C92.9969 40.4049 101.444 36.8572 109.546 34.9725C117.648 32.9769 140.057 32.9769 146.177 34.9725C152.297 36.8572 157.382 40.5158 157.382 42.9548C157.382 46.059 154.451 47.0568 136.265 50.0502C111.614 54.0413 99.1165 58.0325 91.8764 64.1301C86.7911 68.4538 84.8087 72.0015 84.3778 77.7665C83.3435 88.9639 90.8421 96.1701 108.598 101.27C116.269 103.376 141.35 103.709 150.487 101.713C166.001 98.3874 176.43 93.842 183.929 87.19C192.893 79.0969 195.048 70.8929 190.479 62.2454C188.669 58.6977 188.411 57.589 189.273 55.7043C193.41 45.8373 193.841 44.1743 193.841 38.8528C193.755 22.6665 175.827 8.03227 148.332 1.82381C142.643 0.493439 121.871 -0.504349 116.441 0.271706Z" fill="url(#paint0_linear_18_510)"/>
<path d="M36.52 146H42V174H36.52V162.4H26.12V174H20.6V146H26.12V157.12H36.52V146ZM70.7616 170.36C67.9349 173.16 64.4949 174.56 60.4416 174.56C56.3882 174.56 52.9482 173.16 50.1216 170.36C47.3216 167.533 45.9216 164.08 45.9216 160C45.9216 155.92 47.3216 152.48 50.1216 149.68C52.9482 146.853 56.3882 145.44 60.4416 145.44C64.4949 145.44 67.9349 146.853 70.7616 149.68C73.5882 152.48 75.0016 155.92 75.0016 160C75.0016 164.08 73.5882 167.533 70.7616 170.36ZM54.0016 166.6C55.7349 168.306 57.8816 169.16 60.4416 169.16C63.0016 169.16 65.1482 168.306 66.8816 166.6C68.6149 164.866 69.4816 162.666 69.4816 160C69.4816 157.333 68.6149 155.133 66.8816 153.4C65.1482 151.666 63.0016 150.8 60.4416 150.8C57.8816 150.8 55.7349 151.666 54.0016 153.4C52.2682 155.133 51.4016 157.333 51.4016 160C51.4016 162.666 52.2682 164.866 54.0016 166.6ZM83.6284 168.72H95.5084V174H76.5884V169.6L88.2284 151.28H76.8684V146H95.2684V150.36L83.6284 168.72ZM117.311 174L115.631 168.96H104.471L102.791 174H96.8309L106.631 146H113.471L123.311 174H117.311ZM106.231 163.8H113.911L110.071 152.36L106.231 163.8ZM142.23 146H147.75V174H143.55L131.55 156.88V174H126.03V146H130.23L142.23 163.08V146ZM179.864 159.48C182.317 160.893 183.544 163.026 183.544 165.88C183.544 168.253 182.704 170.2 181.024 171.72C179.344 173.24 177.277 174 174.824 174H162.944V146H173.984C176.384 146 178.397 146.746 180.024 148.24C181.677 149.706 182.504 151.586 182.504 153.88C182.504 156.2 181.624 158.066 179.864 159.48ZM173.984 151.16H168.464V157.32H173.984C174.837 157.32 175.544 157.026 176.104 156.44C176.69 155.853 176.984 155.12 176.984 154.24C176.984 153.36 176.704 152.626 176.144 152.04C175.584 151.453 174.864 151.16 173.984 151.16ZM174.824 168.84C175.757 168.84 176.53 168.533 177.144 167.92C177.757 167.28 178.064 166.48 178.064 165.52C178.064 164.586 177.757 163.813 177.144 163.2C176.53 162.56 175.757 162.24 174.824 162.24H168.464V168.84H174.824ZM186.923 174V144.8H192.083V174H186.923ZM213.845 171.52C211.792 173.546 209.285 174.56 206.325 174.56C203.365 174.56 200.859 173.546 198.805 171.52C196.779 169.466 195.765 166.96 195.765 164C195.765 161.04 196.779 158.546 198.805 156.52C200.859 154.466 203.365 153.44 206.325 153.44C209.285 153.44 211.792 154.466 213.845 156.52C215.899 158.546 216.925 161.04 216.925 164C216.925 166.96 215.899 169.466 213.845 171.52ZM202.445 167.96C203.485 169 204.779 169.52 206.325 169.52C207.872 169.52 209.165 169 210.205 167.96C211.245 166.92 211.765 165.6 211.765 164C211.765 162.4 211.245 161.08 210.205 160.04C209.165 159 207.872 158.48 206.325 158.48C204.779 158.48 203.485 159 202.445 160.04C201.432 161.08 200.925 162.4 200.925 164C200.925 165.6 201.432 166.92 202.445 167.96ZM235.875 154H240.915V173.04C240.915 176.133 239.889 178.493 237.835 180.12C235.809 181.746 233.355 182.56 230.475 182.56C228.315 182.56 226.409 182.146 224.755 181.32C223.129 180.493 221.875 179.28 220.995 177.68L225.395 175.16C226.409 177.026 228.155 177.96 230.635 177.96C232.262 177.96 233.542 177.533 234.475 176.68C235.409 175.826 235.875 174.613 235.875 173.04V170.88C234.355 172.906 232.222 173.92 229.475 173.92C226.649 173.92 224.275 172.933 222.355 170.96C220.462 168.96 219.515 166.533 219.515 163.68C219.515 160.853 220.475 158.44 222.395 156.44C224.315 154.44 226.675 153.44 229.475 153.44C232.222 153.44 234.355 154.453 235.875 156.48V154ZM226.235 167.64C227.302 168.653 228.649 169.16 230.275 169.16C231.902 169.16 233.235 168.653 234.275 167.64C235.342 166.6 235.875 165.28 235.875 163.68C235.875 162.106 235.342 160.813 234.275 159.8C233.235 158.76 231.902 158.24 230.275 158.24C228.649 158.24 227.302 158.76 226.235 159.8C225.195 160.813 224.675 162.106 224.675 163.68C224.675 165.28 225.195 166.6 226.235 167.64Z" fill="#17252A"/>
<path d="M17.344 235C13.12 235 9.792 233.89 7.36 231.672C4.928 229.41 3.712 226.296 3.712 222.328C3.712 221.048 3.84 219.746 4.096 218.424L5.888 208.632H12.032L10.368 217.912C10.24 218.594 10.176 219.234 10.176 219.832C10.176 221.837 10.816 223.416 12.096 224.568C13.376 225.72 15.0613 226.296 17.152 226.296H34.688C37.5893 226.296 39.5947 225.506 40.704 223.928L40 219.64C39.7867 218.146 39.232 217.016 38.336 216.248C37.44 215.437 36.2667 215.032 34.816 215.032H21.12L17.024 206.136L32.576 191.096L35.904 197.88L25.536 207.608H35.328C38.3147 207.608 40.7893 208.418 42.752 210.04C44.7573 211.661 45.9947 213.837 46.464 216.568L47.04 219.896C47.2107 221.09 47.296 221.986 47.296 222.584C47.296 224.973 46.72 227.106 45.568 228.984C44.4587 230.861 42.8587 232.333 40.768 233.4C38.6773 234.466 36.224 235 33.408 235H17.344ZM14.464 200.696L23.744 191.8L25.92 196.216L16.512 205.176L14.464 200.696ZM60.615 198.712V222.52C60.615 223.757 60.4657 224.888 60.167 225.912L59.463 228.472L62.791 227.768C64.6683 227.384 66.2683 226.936 67.591 226.424C68.9137 225.869 70.0443 225.144 70.983 224.248L70.727 196.152L77.575 194.232V220.984C77.575 222.52 78.0657 223.8 79.047 224.824C80.071 225.805 81.479 226.296 83.271 226.296H85.063C85.7883 226.296 86.407 226.722 86.919 227.576C87.431 228.386 87.687 229.41 87.687 230.648C87.687 231.885 87.431 232.93 86.919 233.784C86.407 234.594 85.7883 235 85.063 235H82.887C80.839 235 79.0897 234.594 77.639 233.784C76.1883 232.93 75.0577 231.736 74.247 230.2C73.351 231.565 72.1777 232.674 70.727 233.528C69.319 234.381 67.5057 235.064 65.287 235.576L60.039 236.728L57.223 234.424C56.1563 233.613 55.3457 232.632 54.791 231.48C54.279 230.285 54.023 228.984 54.023 227.576V200.504L60.615 198.712ZM84.9985 235C84.2732 235 83.6545 234.594 83.1425 233.784C82.6305 232.93 82.3745 231.885 82.3745 230.648C82.3745 229.41 82.6305 228.386 83.1425 227.576C83.6545 226.722 84.2732 226.296 84.9985 226.296H90.6305C93.6598 226.296 95.9212 225.549 97.4145 224.056L93.6385 205.432L100.423 202.168L103.751 218.232C104.049 219.853 104.199 221.176 104.199 222.2C104.199 226.082 102.961 229.197 100.487 231.544C98.0118 233.848 94.6625 235 90.4385 235H84.9985ZM87.8145 242.168H95.6225V249.592H87.8145V242.168ZM115.362 232.504L118.37 231.288V204.088L127.842 202.232V230.264C127.842 233.464 127.074 236.237 125.538 238.584C124.002 240.973 121.89 242.722 119.202 243.832L110.37 247.48L105.121 236.728L115.362 232.504ZM118.37 185.848H128.098V195.192H118.37V185.848ZM168.789 222.2C169.727 222.2 170.538 222.84 171.221 224.12C171.903 225.357 172.245 226.85 172.245 228.6C172.245 230.349 171.903 231.864 171.221 233.144C170.538 234.381 169.727 235 168.789 235H163.157C162.645 237.346 161.663 239.394 160.213 241.144C158.762 242.893 156.927 244.088 154.709 244.728L143.573 248.184L140.117 238.2L151.125 234.872L154.837 233.72L154.645 232.376L150.485 233.464C149.461 233.72 148.415 233.848 147.349 233.848H143.189C140.757 233.848 138.645 233.016 136.853 231.352C135.103 229.688 134.058 227.576 133.717 225.016L132.949 219.192C132.821 218.082 132.757 217.037 132.757 216.056C132.757 211.832 133.887 208.333 136.149 205.56C138.453 202.744 141.738 200.866 146.005 199.928L156.757 197.56L160.533 200.696C161.514 201.506 162.261 202.466 162.773 203.576C163.285 204.685 163.541 205.88 163.541 207.16V222.2H168.789ZM153.749 222.648V208.952L145.621 210.616C143.402 211.128 142.293 212.429 142.293 214.52C142.293 214.946 142.314 215.266 142.357 215.48L143.317 222.648H153.749ZM139.541 183.416L144.021 181.368L147.093 191.032L150.037 181.304L154.645 183.352L150.293 194.872H143.893L139.541 183.416ZM193.773 231.672C192.109 233.89 189.442 235 185.773 235H168.812C167.874 235 167.063 234.381 166.38 233.144C165.698 231.864 165.356 230.349 165.356 228.6C165.356 226.85 165.698 225.357 166.38 224.12C167.063 222.84 167.874 222.2 168.812 222.2L174.189 222.136L175.085 211C175.298 208.824 175.895 206.84 176.877 205.048C177.901 203.213 179.266 201.762 180.973 200.696C182.679 199.629 184.621 199.096 186.797 199.096C187.863 199.096 188.93 199.224 189.997 199.48L191.725 199.864L193.645 194.744L208.365 202.424C210.754 203.661 212.631 205.325 213.997 207.416C215.362 209.464 216.301 212.002 216.813 215.032L218.285 223.8C218.37 224.184 218.413 224.781 218.413 225.592C218.413 228.322 217.559 230.669 215.853 232.632L212.589 236.536L193.773 231.672ZM208.365 215.352C208.151 214.242 207.789 213.282 207.277 212.472C206.765 211.661 206.125 211.064 205.357 210.68L199.405 207.48L199.533 217.592C199.533 218.957 199.298 220.258 198.829 221.496L209.901 224.376L208.365 215.352ZM191.149 222.264C192.002 221.282 192.429 219.853 192.429 217.976L192.301 208.12L188.141 207.992C186.861 207.906 185.773 208.248 184.877 209.016C184.023 209.741 183.554 210.765 183.469 212.088L182.637 222.264H191.149ZM235.75 235C233.233 235 230.993 234.445 229.03 233.336C227.11 232.226 225.595 230.648 224.486 228.6C223.377 226.552 222.822 224.162 222.822 221.432L222.694 194.296L232.678 191.608V218.168C232.678 219.405 233.041 220.386 233.766 221.112C234.491 221.837 235.451 222.2 236.646 222.2H243.046C244.881 222.2 246.438 221.944 247.718 221.432L243.686 202.872L253.414 198.136L257.126 214.84C257.51 216.546 257.702 218.168 257.702 219.704C257.702 222.733 257.041 225.421 255.718 227.768C254.395 230.072 252.539 231.864 250.15 233.144C247.803 234.381 245.094 235 242.022 235H235.75ZM234.854 241.272H244.582V250.616H234.854V241.272Z" fill="black"/>
<defs>
<linearGradient id="paint0_linear_18_510" x1="200.478" y1="100.677" x2="47.3772" y2="59.6755" gradientUnits="userSpaceOnUse">
<stop stop-color="#2B7A78"/>
<stop offset="1" stop-color="#3AAFA9"/>
</linearGradient>
</defs>
</svg>
