<svg width="200" height="54" viewBox="0 0 200 54" fill="none" xmlns="http://www.w3.org/2000/svg">
<path d="M16.5639 41C13.3959 41 10.8999 40.168 9.07594 38.504C7.25194 36.808 6.33994 34.472 6.33994 31.496C6.33994 30.536 6.43594 29.56 6.62794 28.568L7.97194 21.224H12.5799L11.3319 28.184C11.2359 28.696 11.1879 29.176 11.1879 29.624C11.1879 31.128 11.6679 32.312 12.6279 33.176C13.5879 34.04 14.8519 34.472 16.4199 34.472H29.5719C31.7479 34.472 33.2519 33.88 34.0839 32.696L33.5559 29.48C33.3959 28.36 32.9799 27.512 32.3079 26.936C31.6359 26.328 30.7559 26.024 29.6679 26.024H19.3959L16.3239 19.352L27.9879 8.072L30.4839 13.16L22.7079 20.456H30.0519C32.2919 20.456 34.1479 21.064 35.6199 22.28C37.1239 23.496 38.0519 25.128 38.4039 27.176L38.8359 29.672C38.9639 30.568 39.0279 31.24 39.0279 31.688C39.0279 33.48 38.5959 35.08 37.7319 36.488C36.8999 37.896 35.6999 39 34.1319 39.8C32.5639 40.6 30.7239 41 28.6119 41H16.5639ZM14.4039 15.272L21.3639 8.6L22.9959 11.912L15.9399 18.632L14.4039 15.272ZM49.0172 13.784V31.64C49.0172 32.568 48.9052 33.416 48.6812 34.184L48.1532 36.104L50.6492 35.576C52.0572 35.288 53.2572 34.952 54.2492 34.568C55.2412 34.152 56.0892 33.608 56.7932 32.936L56.6012 11.864L61.7372 10.424V30.488C61.7372 31.64 62.1052 32.6 62.8412 33.368C63.6092 34.104 64.6652 34.472 66.0092 34.472H67.3532C67.8972 34.472 68.3612 34.792 68.7452 35.432C69.1292 36.04 69.3212 36.808 69.3212 37.736C69.3212 38.664 69.1292 39.448 68.7452 40.088C68.3612 40.696 67.8972 41 67.3532 41H65.7212C64.1852 41 62.8732 40.696 61.7852 40.088C60.6972 39.448 59.8492 38.552 59.2412 37.4C58.5692 38.424 57.6892 39.256 56.6012 39.896C55.5452 40.536 54.1852 41.048 52.5212 41.432L48.5852 42.296L46.4732 40.568C45.6732 39.96 45.0652 39.224 44.6492 38.36C44.2652 37.464 44.0732 36.488 44.0732 35.432V15.128L49.0172 13.784ZM67.3048 41C66.7608 41 66.2968 40.696 65.9128 40.088C65.5288 39.448 65.3368 38.664 65.3368 37.736C65.3368 36.808 65.5288 36.04 65.9128 35.432C66.2968 34.792 66.7608 34.472 67.3048 34.472H71.5288C73.8008 34.472 75.4968 33.912 76.6168 32.792L73.7848 18.824L78.8728 16.376L81.3688 28.424C81.5928 29.64 81.7048 30.632 81.7048 31.4C81.7048 34.312 80.7768 36.648 78.9208 38.408C77.0648 40.136 74.5528 41 71.3848 41H67.3048ZM69.4168 46.376H75.2728V51.944H69.4168V46.376ZM90.0771 39.128L92.3331 38.216V17.816L99.4371 16.424V37.448C99.4371 39.848 98.8611 41.928 97.7091 43.688C96.5571 45.48 94.9731 46.792 92.9571 47.624L86.3331 50.36L82.3971 42.296L90.0771 39.128ZM92.3331 4.136H99.6291V11.144H92.3331V4.136ZM130.147 31.4C130.851 31.4 131.459 31.88 131.971 32.84C132.483 33.768 132.739 34.888 132.739 36.2C132.739 37.512 132.483 38.648 131.971 39.608C131.459 40.536 130.851 41 130.147 41H125.923C125.539 42.76 124.803 44.296 123.715 45.608C122.627 46.92 121.251 47.816 119.587 48.296L111.235 50.888L108.643 43.4L116.899 40.904L119.683 40.04L119.539 39.032L116.419 39.848C115.651 40.04 114.867 40.136 114.067 40.136H110.947C109.123 40.136 107.539 39.512 106.195 38.264C104.883 37.016 104.099 35.432 103.843 33.512L103.267 29.144C103.171 28.312 103.123 27.528 103.123 26.792C103.123 23.624 103.971 21 105.667 18.92C107.395 16.808 109.859 15.4 113.059 14.696L121.123 12.92L123.955 15.272C124.691 15.88 125.251 16.6 125.635 17.432C126.019 18.264 126.211 19.16 126.211 20.12V31.4H130.147ZM118.867 31.736V21.464L112.771 22.712C111.107 23.096 110.275 24.072 110.275 25.64C110.275 25.96 110.291 26.2 110.323 26.36L111.043 31.736H118.867ZM108.211 2.312L111.571 0.775997L113.875 8.024L116.083 0.727998L119.539 2.264L116.275 10.904H111.475L108.211 2.312ZM148.885 38.504C147.637 40.168 145.637 41 142.885 41H130.165C129.461 41 128.853 40.536 128.341 39.608C127.829 38.648 127.573 37.512 127.573 36.2C127.573 34.888 127.829 33.768 128.341 32.84C128.853 31.88 129.461 31.4 130.165 31.4L134.197 31.352L134.869 23C135.029 21.368 135.477 19.88 136.213 18.536C136.981 17.16 138.005 16.072 139.285 15.272C140.565 14.472 142.021 14.072 143.653 14.072C144.453 14.072 145.253 14.168 146.053 14.36L147.349 14.648L148.789 10.808L159.829 16.568C161.621 17.496 163.029 18.744 164.053 20.312C165.077 21.848 165.781 23.752 166.165 26.024L167.269 32.6C167.333 32.888 167.365 33.336 167.365 33.944C167.365 35.992 166.725 37.752 165.445 39.224L162.997 42.152L148.885 38.504ZM159.829 26.264C159.669 25.432 159.397 24.712 159.013 24.104C158.629 23.496 158.149 23.048 157.573 22.76L153.109 20.36L153.205 27.944C153.205 28.968 153.029 29.944 152.677 30.872L160.981 33.032L159.829 26.264ZM146.917 31.448C147.557 30.712 147.877 29.64 147.877 28.232L147.781 20.84L144.661 20.744C143.701 20.68 142.885 20.936 142.213 21.512C141.573 22.056 141.221 22.824 141.157 23.816L140.533 31.448H146.917ZM180.368 41C178.48 41 176.8 40.584 175.328 39.752C173.888 38.92 172.752 37.736 171.92 36.2C171.088 34.664 170.672 32.872 170.672 30.824L170.576 10.472L178.064 8.456V28.376C178.064 29.304 178.336 30.04 178.88 30.584C179.424 31.128 180.144 31.4 181.04 31.4H185.84C187.216 31.4 188.384 31.208 189.344 30.824L186.32 16.904L193.616 13.352L196.4 25.88C196.688 27.16 196.832 28.376 196.832 29.528C196.832 31.8 196.336 33.816 195.344 35.576C194.352 37.304 192.96 38.648 191.168 39.608C189.408 40.536 187.376 41 185.072 41H180.368ZM179.696 45.704H186.992V52.712H179.696V45.704Z" fill="#fff"/>
</svg>
