<svg width="113" height="97" viewBox="0 0 113 97" fill="none" xmlns="http://www.w3.org/2000/svg">
<path d="M46.5674 0.21369C38.3234 1.34516 26.6724 5.43585 19.6544 9.52654C8.13943 16.3153 -0.582574 27.8911 0.030426 35.6373L0.235428 38.4225L1.39343 35.8114C4.80043 27.8041 13.1814 20.232 23.2654 15.8802C31.8504 12.2247 39.9584 10.8321 53.0404 10.8321C73.9584 10.8321 87.9264 15.7931 93.5134 25.193C101.212 38.0743 90.2434 54.263 69.7344 60.0944C64.4874 61.574 54.6074 63.1407 49.2934 63.3148L45.8864 63.4018L48.9524 64.2722C50.6564 64.7073 56.6514 64.8814 62.2394 64.7073C73.8224 64.2722 80.0224 62.5314 88.4034 57.4834C91.1964 55.8297 93.5134 54.6112 93.6494 54.7852C94.4674 55.7426 89.0844 61.8352 85.5414 64.0111C71.7784 72.2795 41.3894 72.8017 34.7124 64.8814C33.3494 63.2277 33.2814 62.8796 34.1674 61.7481C35.4614 60.0074 38.5274 59.2241 51.6784 57.1352C79.2054 52.6964 90.0384 47.1261 91.6054 36.6818C92.9004 27.63 86.9724 21.3634 73.2094 17.3598C65.4414 15.0968 43.9104 15.3579 34.4394 17.795C18.7004 21.9727 8.95643 28.7615 6.36743 37.5521C5.27743 41.1206 5.27743 41.4687 6.64043 45.0372C7.38943 47.1261 8.41143 49.476 8.82043 50.1723C9.43343 51.3038 9.22942 52.2612 7.86642 54.7852C3.84642 62.3574 3.84642 69.1462 7.73042 75.6739C13.1134 84.6386 25.8544 92.0366 42.1394 95.5181C48.8164 96.9106 65.0324 96.9106 71.0964 95.5181C95.4894 89.7737 113 74.8905 113 59.9204C113 57.9185 112.796 58.0926 111.092 61.574C106.255 71.235 96.1704 78.9812 83.0204 83.159C69.6654 87.3367 43.9784 86.6404 32.7364 81.7664C24.0144 78.0238 18.2914 72.4535 16.9964 66.361C13.4534 49.5631 35.3934 33.7225 62.1714 33.6355C65.1694 33.6355 67.4174 33.4614 67.2134 33.2003C67.0764 32.9392 63.8064 32.33 59.9904 31.8948C47.9304 30.3281 34.0304 33.1133 23.9464 39.2928C21.2214 40.9465 18.9724 41.991 18.9724 41.6428C18.9724 40.5113 22.4474 36.2466 24.9684 34.1577C28.0344 31.7207 34.7124 28.9356 41.1164 27.4559C47.5214 25.8893 65.2374 25.8893 70.0744 27.4559C74.9124 28.9356 78.9324 31.8077 78.9324 33.7225C78.9324 36.1595 76.6154 36.9429 62.2394 39.2928C42.7524 42.4261 32.8724 45.5594 27.1494 50.3464C23.1294 53.7408 21.5614 56.526 21.2214 61.0518C20.4034 69.8425 26.3314 75.4998 40.3674 79.5035C46.4314 81.1571 66.2594 81.4182 73.4814 79.8516C85.7464 77.2405 93.9904 73.672 99.9184 68.4499C107.004 62.0963 108.707 55.6556 105.096 48.8668C103.665 46.0816 103.461 45.2113 104.142 43.7317C107.413 35.9855 107.754 34.6799 107.754 30.5022C107.685 17.795 93.5134 6.30621 71.7784 1.4322C67.2814 0.387762 50.8604 -0.395563 46.5674 0.21369Z" fill="url(#paint0_linear_18_6)"/>
<defs>
<linearGradient id="paint0_linear_18_6" x1="113" y1="79.0382" x2="-7.91558" y2="46.4306" gradientUnits="userSpaceOnUse">
<stop stop-color="#2B7A78"/>
<stop offset="1" stop-color="#3AAFA9"/>
</linearGradient>
</defs>
</svg>
