<svg width="25" height="25" viewBox="0 0 25 25" fill="none" xmlns="http://www.w3.org/2000/svg">
<path d="M12.5 8L17 12.5L14.5 15L12.5 17" stroke="#159F91" stroke-width="3" stroke-linecap="round" stroke-linejoin="round"/>
<path d="M18.5092 0H15.2576C11.2556 0 8.75436 2.5 8.75436 6.5V11.5625H14.3071L11.7183 8.975C11.6308 8.88836 11.5613 8.78516 11.5141 8.67141C11.4669 8.55767 11.4428 8.43566 11.4432 8.3125C11.4432 8.075 11.5307 7.8375 11.7183 7.65C12.081 7.2875 12.6813 7.2875 13.044 7.65L17.2336 11.8375C17.5963 12.2 17.5963 12.8 17.2336 13.1625L13.044 17.35C12.6813 17.7125 12.081 17.7125 11.7183 17.35C11.5439 17.1736 11.4461 16.9355 11.4461 16.6875C11.4461 16.4395 11.5439 16.2014 11.7183 16.025L14.3071 13.4375H8.75436V18.5C8.75436 22.5 11.2556 25 15.2576 25H18.4967C22.4987 25 25 22.5 25 18.5V6.5C25.0125 2.5 22.5112 0 18.5092 0ZM0.937967 11.5625C0.425212 11.5625 0 11.9875 0 12.5C0 13.0125 0.425212 13.4375 0.937967 13.4375H8.75436V11.5625H0.937967Z" fill="#5BC3B8"/>
<path d="M8.75352 12.5H16.5" stroke="#159F91" stroke-width="2"/>
<path d="M0 12.5C0 11.9477 0.447715 11.5 1 11.5H9C9.55228 11.5 10 11.9477 10 12.5V12.5C10 13.0523 9.55228 13.5 9 13.5H1C0.447715 13.5 0 13.0523 0 12.5V12.5Z" fill="#159F91"/>
</svg>
